# xmcd
#
# Track frame offsets:
#	150
#	17115
#	37720
#	52962
#	69507
#	95235
#	111017
#	126825
#	146112
#	169762
#	188952
#	202250
#	221502
#
# Disc length: 3187 seconds
#
# Revision: 3
# Processed by: cddbd v1.5.2PL0 Copyright (c) Steve Scherf et al.
# Submitted via: audiograbber 1.83.01
#
DISCID=c10c710d
DTITLE=Rob Stone and The C Notes - Just My Luck
DYEAR=2003
DGENRE=Blues
TTITLE0=Never Come Back
TTITLE1=Your Move
TTITLE2=I Had A Dream Last Night
TTITLE3=Cut The Heat On
TTITLE4=Empty Room
TTITLE5=Too Late Honey
TTITLE6=Playing Games
TTITLE7=My Side Of The Story
TTITLE8=Just Out Of Reach
TTITLE9=Pickin' The Blues
TTITLE10=You Got Me Restless
TTITLE11=Stranger Blues
TTITLE12=Rocket 88
EXTD=
EXTT0=
EXTT1=
EXTT2=
EXTT3=
EXTT4=
EXTT5=
EXTT6=
EXTT7=
EXTT8=
EXTT9=
EXTT10=
EXTT11=
EXTT12=Butterfly
PLAYORDER=
